# xmcd
#
# Track frame offsets: 
#        150
#        15752
#        44660
#        65455
#        89522
#        116880
#        154005
#        195035
#        224132
#        259597
#        281205
#
# Disc length: 3950 seconds
#
# Revision: 0
# Processed by: cddbd v1.5.2PL0 Copyright (c) Steve Scherf et al.
# Submitted via: ExactAudioCopy v0.99pb5
#
DISCID=9c0f6c0b
DTITLE=Eric Clapton  - Superman In Europe - Disc 5 (032901)
DYEAR=1900
DGENRE=
TTITLE0=Key To The Highway
TTITLE1=Reptile
TTITLE2=Tears In Heaven
TTITLE3=Bell Bottom Blues
TTITLE4=Change The World
TTITLE5=My Father's Eyes
TTITLE6=River Of Tears
TTITLE7=Goin' Down Slow
TTITLE8=She's Gone
TTITLE9=Got You On My Mind
TTITLE10=Don't Let Me Be Lonely Tonight
EXTD=
EXTT0=
EXTT1=
EXTT2=
EXTT3=
EXTT4=
EXTT5=
EXTT6=
EXTT7=
EXTT8=
EXTT9=
EXTT10=
PLAYORDER=
